<svg width="892" height="314" viewBox="0 0 892 314" fill="none" xmlns="http://www.w3.org/2000/svg">
<path d="M125.422 99V74.6H116.102V71H138.622V74.6H129.302V99H125.422ZM142.939 99H139.219V79H142.939V81.84C144.219 79.68 146.259 78.4 149.299 78.4C154.259 78.4 156.739 81.36 156.739 87.08H153.259C153.259 84 152.059 81.92 148.579 81.92C145.059 81.92 142.939 84.36 142.939 88.96V99ZM159.131 79H162.851V90C162.851 93.64 164.011 96.08 168.851 96.08C173.171 96.08 175.411 93.64 175.411 89.04V79H179.131V99H175.411V96.12C174.051 98.32 171.731 99.6 167.971 99.6C161.931 99.6 159.131 96.76 159.131 90.24V79ZM182.405 84.16C182.405 80.12 185.765 78.4 191.605 78.4C198.405 78.4 201.565 80.6 201.565 85.8H198.125C198.125 82.6 195.565 81.68 191.045 81.68C186.645 81.68 185.805 82.92 185.805 84.12C185.805 85.44 187.445 86.4 192.365 87.36C198.165 88.44 201.805 89.12 201.805 93.72C201.805 97.96 198.605 99.6 192.645 99.6C185.485 99.6 182.325 97.4 182.325 92.2H185.805C185.805 95.28 188.805 96.32 193.045 96.32C197.005 96.32 198.405 95.32 198.405 93.84C198.405 91.64 195.965 91.56 191.445 90.68C187.085 89.88 182.405 88.64 182.405 84.16ZM208.96 92.08V82.48H203.8V79H208.96L210.04 71H212.72V79H223V82.48H212.72V91.4C212.72 93.68 213.04 96.08 215.92 96.08C217.92 96.08 219.56 95 219.56 91.4H223.04C223.04 97.6 220.24 99.6 215.84 99.6C211.52 99.6 208.96 97.56 208.96 92.08ZM246.253 89.36V90.16H229.293C229.693 94.76 232.293 96.32 236.493 96.32C240.013 96.32 242.573 94.44 242.573 92.16L246.013 92.2C246.013 96.6 242.693 99.6 236.493 99.6C229.013 99.6 225.333 95.92 225.333 88.96C225.333 82.16 229.053 78.4 235.773 78.4C243.253 78.4 246.253 82.2 246.253 89.36ZM229.413 87.24H242.493C242.053 83.2 239.533 81.68 235.933 81.68C232.613 81.68 230.013 83.52 229.413 87.24ZM265.733 99V95.88C264.533 98.16 262.373 99.6 258.493 99.6C252.893 99.6 248.653 95.96 248.653 89C248.653 82.04 252.173 78.4 258.333 78.4C262.293 78.4 264.533 79.72 265.733 82V69H269.453V99H265.733ZM252.573 88.96C252.573 93.6 254.813 96.08 259.093 96.08C263.493 96.08 265.733 93.6 265.733 88.96C265.733 84.36 263.493 81.92 259.093 81.92C254.173 81.92 252.573 84.36 252.573 88.96ZM287.548 99H283.828V69H287.548V81.92C288.748 79.68 290.868 78.4 294.548 78.4C300.068 78.4 303.828 82.04 303.828 89C303.828 95.96 299.388 99.6 294.388 99.6C290.788 99.6 288.708 98.16 287.548 95.96V99ZM299.908 88.96C299.908 84.36 298.068 81.92 293.788 81.92C289.748 81.92 287.548 84.36 287.548 88.96C287.548 93.6 289.748 96.08 293.788 96.08C297.428 96.08 299.908 93.6 299.908 88.96ZM319.477 98.44C317.317 104.56 316.437 108.2 311.077 108.2C306.997 108.2 305.277 104.88 305.277 100.48H308.597C308.597 104.12 309.797 104.92 311.157 104.92C313.157 104.92 314.037 102.96 314.957 100.24L315.477 98.76L304.877 79H309.117L317.157 93.92L322.357 79H326.317L319.477 98.44ZM338.311 79H342.031V90C342.031 93.64 343.191 96.08 348.031 96.08C352.351 96.08 354.591 93.64 354.591 89.04V79H358.311V99H354.591V96.12C353.231 98.32 350.911 99.6 347.151 99.6C341.111 99.6 338.311 96.76 338.311 90.24V79ZM382.305 99H378.585V88C378.585 84.36 377.425 81.92 372.585 81.92C368.265 81.92 366.025 84.36 366.025 88.96V99H362.305V79H366.025V81.88C367.385 79.68 369.705 78.4 373.465 78.4C379.505 78.4 382.305 81.24 382.305 87.76V99ZM385.098 72.92C385.098 71.12 385.898 70.24 387.778 70.24C389.618 70.24 390.418 71.12 390.418 72.92C390.418 74.68 389.618 75.6 387.778 75.6C385.898 75.6 385.098 74.68 385.098 72.92ZM385.898 99V79H389.618V99H385.898ZM392.833 89C392.833 82.04 396.433 78.4 403.913 78.4C411.393 78.4 415.033 82.04 415.033 89C415.033 95.96 411.393 99.6 403.913 99.6C396.433 99.6 392.833 95.96 392.833 89ZM396.753 89C396.753 93.64 399.073 96.08 403.913 96.08C408.753 96.08 411.113 93.64 411.113 89C411.113 84.36 408.753 81.92 403.913 81.92C398.993 81.92 396.753 84.36 396.753 89ZM438.242 99H434.522V88C434.522 84.36 433.362 81.92 428.522 81.92C424.202 81.92 421.962 84.36 421.962 88.96V99H418.242V79H421.962V81.88C423.322 79.68 425.642 78.4 429.402 78.4C435.442 78.4 438.242 81.24 438.242 87.76V99ZM441.116 84.16C441.116 80.12 444.476 78.4 450.316 78.4C457.116 78.4 460.276 80.6 460.276 85.8H456.836C456.836 82.6 454.276 81.68 449.756 81.68C445.356 81.68 444.516 82.92 444.516 84.12C444.516 85.44 446.156 86.4 451.076 87.36C456.876 88.44 460.516 89.12 460.516 93.72C460.516 97.96 457.316 99.6 451.356 99.6C444.196 99.6 441.036 97.4 441.036 92.2H444.516C444.516 95.28 447.516 96.32 451.756 96.32C455.716 96.32 457.116 95.32 457.116 93.84C457.116 91.64 454.676 91.56 450.156 90.68C445.796 89.88 441.116 88.64 441.116 84.16ZM463.351 97.08C463.351 95.4 464.111 94.52 465.871 94.52C467.631 94.52 468.391 95.4 468.391 97.08C468.391 100.36 466.991 103.76 463.631 105.16L463.071 104.32C465.071 102.6 465.671 101.16 465.911 99.6C464.151 99.56 463.351 98.84 463.351 97.08ZM485.712 99H481.992V69H485.712V99ZM488.927 89C488.927 82.04 492.527 78.4 500.007 78.4C507.487 78.4 511.127 82.04 511.127 89C511.127 95.96 507.487 99.6 500.007 99.6C492.527 99.6 488.927 95.96 488.927 89ZM492.847 89C492.847 93.64 495.167 96.08 500.007 96.08C504.847 96.08 507.207 93.64 507.207 89C507.207 84.36 504.847 81.92 500.007 81.92C495.087 81.92 492.847 84.36 492.847 89ZM524.256 78.4C530.656 78.4 534.016 82.2 534.016 87H530.536C530.536 84.08 528.496 81.92 524.216 81.92C520.216 81.92 517.456 83.76 517.456 88.92C517.456 94.32 520.536 96.08 524.416 96.08C528.736 96.08 530.616 93.92 530.616 91H534.096C534.096 95.8 531.096 99.6 524.336 99.6C517.336 99.6 513.536 95.96 513.536 89C513.536 81.96 516.816 78.4 524.256 78.4ZM551.954 86.2C551.954 81.96 548.434 81.68 546.034 81.68C543.434 81.68 540.274 81.96 540.274 85.92H536.794C536.794 80.6 540.354 78.4 545.994 78.4C552.514 78.4 555.714 80.72 555.714 86.64V99H551.954V96.24C551.154 98.24 549.194 99.6 544.634 99.6C539.394 99.6 535.714 98.28 535.714 93.44C535.714 89.52 538.794 87.72 544.874 87.04L551.954 86.28V86.2ZM551.954 89.08L545.234 89.8C542.274 90.16 539.634 91.04 539.634 93.36C539.634 95.12 540.794 96.32 545.034 96.32C550.074 96.32 551.754 94 551.954 92.36V89.08ZM563.017 99H559.297V69H563.017V99ZM581.142 99H577.422V69H581.142V81.92C582.342 79.68 584.462 78.4 588.142 78.4C593.662 78.4 597.422 82.04 597.422 89C597.422 95.96 592.982 99.6 587.982 99.6C584.382 99.6 582.302 98.16 581.142 95.96V99ZM593.502 88.96C593.502 84.36 591.662 81.92 587.382 81.92C583.342 81.92 581.142 84.36 581.142 88.96C581.142 93.6 583.342 96.08 587.382 96.08C591.022 96.08 593.502 93.6 593.502 88.96ZM600.225 79H603.945V90C603.945 93.64 605.105 96.08 609.945 96.08C614.265 96.08 616.505 93.64 616.505 89.04V79H620.225V99H616.505V96.12C615.145 98.32 612.825 99.6 609.065 99.6C603.025 99.6 600.225 96.76 600.225 90.24V79ZM623.499 84.16C623.499 80.12 626.859 78.4 632.699 78.4C639.499 78.4 642.659 80.6 642.659 85.8H639.219C639.219 82.6 636.659 81.68 632.139 81.68C627.739 81.68 626.899 82.92 626.899 84.12C626.899 85.44 628.539 86.4 633.459 87.36C639.259 88.44 642.899 89.12 642.899 93.72C642.899 97.96 639.699 99.6 633.739 99.6C626.579 99.6 623.419 97.4 623.419 92.2H626.899C626.899 95.28 629.899 96.32 634.139 96.32C638.099 96.32 639.499 95.32 639.499 93.84C639.499 91.64 637.059 91.56 632.539 90.68C628.179 89.88 623.499 88.64 623.499 84.16ZM645.294 72.92C645.294 71.12 646.094 70.24 647.974 70.24C649.814 70.24 650.614 71.12 650.614 72.92C650.614 74.68 649.814 75.6 647.974 75.6C646.094 75.6 645.294 74.68 645.294 72.92ZM646.094 99V79H649.814V99H646.094ZM673.828 99H670.108V88C670.108 84.36 668.948 81.92 664.108 81.92C659.788 81.92 657.548 84.36 657.548 88.96V99H653.828V79H657.548V81.88C658.908 79.68 661.228 78.4 664.988 78.4C671.028 78.4 673.828 81.24 673.828 87.76V99ZM697.542 89.36V90.16H680.582C680.982 94.76 683.582 96.32 687.782 96.32C691.302 96.32 693.862 94.44 693.862 92.16L697.302 92.2C697.302 96.6 693.982 99.6 687.782 99.6C680.302 99.6 676.622 95.92 676.622 88.96C676.622 82.16 680.342 78.4 687.062 78.4C694.542 78.4 697.542 82.2 697.542 89.36ZM680.702 87.24H693.782C693.342 83.2 690.822 81.68 687.222 81.68C683.902 81.68 681.302 83.52 680.702 87.24ZM700.022 84.16C700.022 80.12 703.382 78.4 709.222 78.4C716.022 78.4 719.182 80.6 719.182 85.8H715.742C715.742 82.6 713.182 81.68 708.662 81.68C704.262 81.68 703.422 82.92 703.422 84.12C703.422 85.44 705.062 86.4 709.982 87.36C715.782 88.44 719.422 89.12 719.422 93.72C719.422 97.96 716.222 99.6 710.262 99.6C703.102 99.6 699.942 97.4 699.942 92.2H703.422C703.422 95.28 706.422 96.32 710.662 96.32C714.622 96.32 716.022 95.32 716.022 93.84C716.022 91.64 713.582 91.56 709.062 90.68C704.702 89.88 700.022 88.64 700.022 84.16ZM721.897 84.16C721.897 80.12 725.257 78.4 731.097 78.4C737.897 78.4 741.057 80.6 741.057 85.8H737.617C737.617 82.6 735.057 81.68 730.537 81.68C726.137 81.68 725.297 82.92 725.297 84.12C725.297 85.44 726.937 86.4 731.857 87.36C737.657 88.44 741.297 89.12 741.297 93.72C741.297 97.96 738.097 99.6 732.137 99.6C724.977 99.6 721.817 97.4 721.817 92.2H725.297C725.297 95.28 728.297 96.32 732.537 96.32C736.497 96.32 737.897 95.32 737.897 93.84C737.897 91.64 735.457 91.56 730.937 90.68C726.577 89.88 721.897 88.64 721.897 84.16ZM764.612 89.36V90.16H747.652C748.052 94.76 750.652 96.32 754.852 96.32C758.372 96.32 760.932 94.44 760.932 92.16L764.372 92.2C764.372 96.6 761.052 99.6 754.852 99.6C747.372 99.6 743.692 95.92 743.692 88.96C743.692 82.16 747.412 78.4 754.132 78.4C761.612 78.4 764.612 82.2 764.612 89.36ZM747.772 87.24H760.852C760.412 83.2 757.892 81.68 754.292 81.68C750.972 81.68 748.372 83.52 747.772 87.24ZM767.093 84.16C767.093 80.12 770.453 78.4 776.293 78.4C783.093 78.4 786.253 80.6 786.253 85.8H782.813C782.813 82.6 780.253 81.68 775.733 81.68C771.333 81.68 770.493 82.92 770.493 84.12C770.493 85.44 772.133 86.4 777.053 87.36C782.853 88.44 786.493 89.12 786.493 93.72C786.493 97.96 783.293 99.6 777.333 99.6C770.173 99.6 767.013 97.4 767.013 92.2H770.493C770.493 95.28 773.493 96.32 777.733 96.32C781.693 96.32 783.093 95.32 783.093 93.84C783.093 91.64 780.653 91.56 776.133 90.68C771.773 89.88 767.093 88.64 767.093 84.16ZM789.328 97.08C789.328 95.4 790.088 94.52 791.848 94.52C793.608 94.52 794.368 95.4 794.368 97.08C794.368 100.36 792.967 103.76 789.608 105.16L789.048 104.32C791.048 102.6 791.648 101.16 791.888 99.6C790.128 99.56 789.328 98.84 789.328 97.08ZM135.684 159H131.964V148C131.964 144.36 130.804 141.92 125.964 141.92C121.644 141.92 119.404 144.36 119.404 148.96V159H115.684V139H119.404V141.88C120.764 139.68 123.084 138.4 126.844 138.4C132.884 138.4 135.684 141.24 135.684 147.76V159ZM154.317 146.2C154.317 141.96 150.797 141.68 148.397 141.68C145.797 141.68 142.637 141.96 142.637 145.92H139.157C139.157 140.6 142.717 138.4 148.357 138.4C154.877 138.4 158.077 140.72 158.077 146.64V159H154.317V156.24C153.517 158.24 151.557 159.6 146.997 159.6C141.757 159.6 138.077 158.28 138.077 153.44C138.077 149.52 141.157 147.72 147.237 147.04L154.317 146.28V146.2ZM154.317 149.08L147.597 149.8C144.637 150.16 141.997 151.04 141.997 153.36C141.997 155.12 143.157 156.32 147.397 156.32C152.437 156.32 154.117 154 154.317 152.36V149.08ZM165.62 152.08V142.48H160.46V139H165.62L166.7 131H169.38V139H179.66V142.48H169.38V151.4C169.38 153.68 169.7 156.08 172.58 156.08C174.58 156.08 176.22 155 176.22 151.4H179.7C179.7 157.6 176.9 159.6 172.5 159.6C168.18 159.6 165.62 157.56 165.62 152.08ZM181.993 132.92C181.993 131.12 182.793 130.24 184.673 130.24C186.513 130.24 187.313 131.12 187.313 132.92C187.313 134.68 186.513 135.6 184.673 135.6C182.793 135.6 181.993 134.68 181.993 132.92ZM182.793 159V139H186.513V159H182.793ZM189.727 149C189.727 142.04 193.327 138.4 200.807 138.4C208.287 138.4 211.927 142.04 211.927 149C211.927 155.96 208.287 159.6 200.807 159.6C193.327 159.6 189.727 155.96 189.727 149ZM193.647 149C193.647 153.64 195.967 156.08 200.807 156.08C205.647 156.08 208.007 153.64 208.007 149C208.007 144.36 205.647 141.92 200.807 141.92C195.887 141.92 193.647 144.36 193.647 149ZM235.137 159H231.417V148C231.417 144.36 230.257 141.92 225.417 141.92C221.097 141.92 218.857 144.36 218.857 148.96V159H215.137V139H218.857V141.88C220.217 139.68 222.537 138.4 226.297 138.4C232.337 138.4 235.137 141.24 235.137 147.76V159ZM253.77 146.2C253.77 141.96 250.25 141.68 247.85 141.68C245.25 141.68 242.09 141.96 242.09 145.92H238.61C238.61 140.6 242.17 138.4 247.81 138.4C254.33 138.4 257.53 140.72 257.53 146.64V159H253.77V156.24C252.97 158.24 251.01 159.6 246.45 159.6C241.21 159.6 237.53 158.28 237.53 153.44C237.53 149.52 240.61 147.72 246.69 147.04L253.77 146.28V146.2ZM253.77 149.08L247.05 149.8C244.09 150.16 241.45 151.04 241.45 153.36C241.45 155.12 242.61 156.32 246.85 156.32C251.89 156.32 253.57 154 253.77 152.36V149.08ZM264.833 159H261.113V129H264.833V159ZM282.958 159H279.238V129H282.958V141.92C284.158 139.68 286.278 138.4 289.958 138.4C295.478 138.4 299.238 142.04 299.238 149C299.238 155.96 294.798 159.6 289.798 159.6C286.198 159.6 284.118 158.16 282.958 155.96V159ZM295.318 148.96C295.318 144.36 293.478 141.92 289.198 141.92C285.158 141.92 282.958 144.36 282.958 148.96C282.958 153.6 285.158 156.08 289.198 156.08C292.838 156.08 295.318 153.6 295.318 148.96ZM306.161 159H302.441V139H306.161V141.84C307.441 139.68 309.481 138.4 312.521 138.4C317.481 138.4 319.961 141.36 319.961 147.08H316.481C316.481 144 315.281 141.92 311.801 141.92C308.281 141.92 306.161 144.36 306.161 148.96V159ZM337.794 146.2C337.794 141.96 334.274 141.68 331.874 141.68C329.274 141.68 326.114 141.96 326.114 145.92H322.634C322.634 140.6 326.194 138.4 331.834 138.4C338.354 138.4 341.554 140.72 341.554 146.64V159H337.794V156.24C336.994 158.24 335.034 159.6 330.474 159.6C325.234 159.6 321.554 158.28 321.554 153.44C321.554 149.52 324.634 147.72 330.714 147.04L337.794 146.28V146.2ZM337.794 149.08L331.074 149.8C328.114 150.16 325.474 151.04 325.474 153.36C325.474 155.12 326.634 156.32 330.874 156.32C335.914 156.32 337.594 154 337.794 152.36V149.08ZM365.137 159H361.417V148C361.417 144.36 360.257 141.92 355.417 141.92C351.097 141.92 348.857 144.36 348.857 148.96V159H345.137V139H348.857V141.88C350.217 139.68 352.537 138.4 356.297 138.4C362.337 138.4 365.137 141.24 365.137 147.76V159ZM385.01 159V155.88C383.81 158.16 381.65 159.6 377.77 159.6C372.17 159.6 367.93 155.96 367.93 149C367.93 142.04 371.45 138.4 377.61 138.4C381.57 138.4 383.81 139.72 385.01 142V129H388.73V159H385.01ZM371.85 148.96C371.85 153.6 374.09 156.08 378.37 156.08C382.77 156.08 385.01 153.6 385.01 148.96C385.01 144.36 382.77 141.92 378.37 141.92C373.45 141.92 371.85 144.36 371.85 148.96ZM391.995 144.16C391.995 140.12 395.355 138.4 401.195 138.4C407.995 138.4 411.155 140.6 411.155 145.8H407.715C407.715 142.6 405.155 141.68 400.635 141.68C396.235 141.68 395.395 142.92 395.395 144.12C395.395 145.44 397.035 146.4 401.955 147.36C407.755 148.44 411.395 149.12 411.395 153.72C411.395 157.96 408.195 159.6 402.235 159.6C395.075 159.6 391.915 157.4 391.915 152.2H395.395C395.395 155.28 398.395 156.32 402.635 156.32C406.595 156.32 407.995 155.32 407.995 153.84C407.995 151.64 405.555 151.56 401.035 150.68C396.675 149.88 391.995 148.64 391.995 144.16ZM414.23 157.08C414.23 155.4 414.99 154.52 416.75 154.52C418.51 154.52 419.27 155.4 419.27 157.08C419.27 160.36 417.87 163.76 414.51 165.16L413.95 164.32C415.95 162.6 416.55 161.16 416.79 159.6C415.03 159.56 414.23 158.84 414.23 157.08ZM452.991 149.36V150.16H436.031C436.431 154.76 439.031 156.32 443.231 156.32C446.751 156.32 449.311 154.44 449.311 152.16L452.751 152.2C452.751 156.6 449.431 159.6 443.231 159.6C435.751 159.6 432.071 155.92 432.071 148.96C432.071 142.16 435.791 138.4 442.511 138.4C449.991 138.4 452.991 142.2 452.991 149.36ZM436.151 147.24H449.231C448.791 143.2 446.271 141.68 442.671 141.68C439.351 141.68 436.751 143.52 436.151 147.24ZM462.071 159L453.391 139H457.511L464.111 154.28L470.711 139H474.831L466.151 159H462.071ZM496.155 149.36V150.16H479.195C479.595 154.76 482.195 156.32 486.395 156.32C489.915 156.32 492.475 154.44 492.475 152.16L495.915 152.2C495.915 156.6 492.595 159.6 486.395 159.6C478.915 159.6 475.235 155.92 475.235 148.96C475.235 142.16 478.955 138.4 485.675 138.4C493.155 138.4 496.155 142.2 496.155 149.36ZM479.315 147.24H492.395C491.955 143.2 489.435 141.68 485.835 141.68C482.515 141.68 479.915 143.52 479.315 147.24ZM519.355 159H515.635V148C515.635 144.36 514.475 141.92 509.635 141.92C505.315 141.92 503.075 144.36 503.075 148.96V159H499.355V139H503.075V141.88C504.435 139.68 506.755 138.4 510.515 138.4C516.555 138.4 519.355 141.24 519.355 147.76V159ZM525.386 152.08V142.48H520.226V139H525.386L526.466 131H529.146V139H539.426V142.48H529.146V151.4C529.146 153.68 529.466 156.08 532.346 156.08C534.346 156.08 535.986 155 535.986 151.4H539.466C539.466 157.6 536.666 159.6 532.266 159.6C527.946 159.6 525.386 157.56 525.386 152.08ZM556.669 167H552.949V139H556.669V141.92C557.869 139.68 559.989 138.4 563.669 138.4C569.189 138.4 572.949 142.04 572.949 149C572.949 155.96 568.509 159.6 563.509 159.6C559.909 159.6 557.829 158.16 556.669 155.96V167ZM569.029 148.96C569.029 144.36 567.189 141.92 562.909 141.92C558.869 141.92 556.669 144.36 556.669 148.96C556.669 153.6 558.869 156.08 562.909 156.08C566.549 156.08 569.029 153.6 569.029 148.96ZM579.872 159H576.152V129H579.872V159ZM598.927 146.2C598.927 141.96 595.407 141.68 593.007 141.68C590.407 141.68 587.247 141.96 587.247 145.92H583.767C583.767 140.6 587.327 138.4 592.967 138.4C599.487 138.4 602.687 140.72 602.687 146.64V159H598.927V156.24C598.127 158.24 596.167 159.6 591.607 159.6C586.367 159.6 582.687 158.28 582.687 153.44C582.687 149.52 585.767 147.72 591.847 147.04L598.927 146.28V146.2ZM598.927 149.08L592.207 149.8C589.247 150.16 586.607 151.04 586.607 153.36C586.607 155.12 587.767 156.32 592.007 156.32C597.047 156.32 598.727 154 598.927 152.36V149.08ZM626.27 159H622.55V148C622.55 144.36 621.39 141.92 616.55 141.92C612.23 141.92 609.99 144.36 609.99 148.96V159H606.27V139H609.99V141.88C611.35 139.68 613.67 138.4 617.43 138.4C623.47 138.4 626.27 141.24 626.27 147.76V159ZM649.863 159H646.143V148C646.143 144.36 644.983 141.92 640.143 141.92C635.823 141.92 633.583 144.36 633.583 148.96V159H629.863V139H633.583V141.88C634.943 139.68 637.263 138.4 641.023 138.4C647.063 138.4 649.863 141.24 649.863 147.76V159ZM673.577 149.36V150.16H656.617C657.017 154.76 659.617 156.32 663.817 156.32C667.337 156.32 669.897 154.44 669.897 152.16L673.337 152.2C673.337 156.6 670.017 159.6 663.817 159.6C656.337 159.6 652.657 155.92 652.657 148.96C652.657 142.16 656.377 138.4 663.097 138.4C670.577 138.4 673.577 142.2 673.577 149.36ZM656.737 147.24H669.817C669.377 143.2 666.857 141.68 663.257 141.68C659.937 141.68 657.337 143.52 656.737 147.24ZM680.497 159H676.777V139H680.497V141.84C681.777 139.68 683.817 138.4 686.857 138.4C691.817 138.4 694.297 141.36 694.297 147.08H690.817C690.817 144 689.617 141.92 686.137 141.92C682.617 141.92 680.497 144.36 680.497 148.96V159ZM696.37 144.16C696.37 140.12 699.73 138.4 705.57 138.4C712.37 138.4 715.53 140.6 715.53 145.8H712.09C712.09 142.6 709.53 141.68 705.01 141.68C700.61 141.68 699.77 142.92 699.77 144.12C699.77 145.44 701.41 146.4 706.33 147.36C712.13 148.44 715.77 149.12 715.77 153.72C715.77 157.96 712.57 159.6 706.61 159.6C699.45 159.6 696.29 157.4 696.29 152.2H699.77C699.77 155.28 702.77 156.32 707.01 156.32C710.97 156.32 712.37 155.32 712.37 153.84C712.37 151.64 709.93 151.56 705.41 150.68C701.05 149.88 696.37 148.64 696.37 144.16ZM744.395 146.2C744.395 141.96 740.875 141.68 738.475 141.68C735.875 141.68 732.715 141.96 732.715 145.92H729.235C729.235 140.6 732.795 138.4 738.435 138.4C744.955 138.4 748.155 140.72 748.155 146.64V159H744.395V156.24C743.595 158.24 741.635 159.6 737.075 159.6C731.835 159.6 728.155 158.28 728.155 153.44C728.155 149.52 731.235 147.72 737.315 147.04L744.395 146.28V146.2ZM744.395 149.08L737.675 149.8C734.715 150.16 732.075 151.04 732.075 153.36C732.075 155.12 733.235 156.32 737.475 156.32C742.515 156.32 744.195 154 744.395 152.36V149.08ZM771.738 159H768.018V148C768.018 144.36 766.858 141.92 762.018 141.92C757.698 141.92 755.458 144.36 755.458 148.96V159H751.738V139H755.458V141.88C756.818 139.68 759.138 138.4 762.898 138.4C768.938 138.4 771.738 141.24 771.738 147.76V159ZM791.612 159V155.88C790.412 158.16 788.252 159.6 784.372 159.6C778.772 159.6 774.532 155.96 774.532 149C774.532 142.04 778.052 138.4 784.212 138.4C788.172 138.4 790.412 139.72 791.612 142V129H795.332V159H791.612ZM778.452 148.96C778.452 153.6 780.692 156.08 784.972 156.08C789.372 156.08 791.612 153.6 791.612 148.96C791.612 144.36 789.372 141.92 784.972 141.92C780.052 141.92 778.452 144.36 778.452 148.96ZM130.643 198.4C137.043 198.4 140.403 202.2 140.403 207H136.923C136.923 204.08 134.883 201.92 130.603 201.92C126.603 201.92 123.843 203.76 123.843 208.92C123.843 214.32 126.923 216.08 130.803 216.08C135.123 216.08 137.003 213.92 137.003 211H140.483C140.483 215.8 137.483 219.6 130.723 219.6C123.723 219.6 119.923 215.96 119.923 209C119.923 201.96 123.203 198.4 130.643 198.4ZM142.501 209C142.501 202.04 146.101 198.4 153.581 198.4C161.061 198.4 164.701 202.04 164.701 209C164.701 215.96 161.061 219.6 153.581 219.6C146.101 219.6 142.501 215.96 142.501 209ZM146.421 209C146.421 213.64 148.741 216.08 153.581 216.08C158.421 216.08 160.781 213.64 160.781 209C160.781 204.36 158.421 201.92 153.581 201.92C148.661 201.92 146.421 204.36 146.421 209ZM185.91 219H182.19V206.96C182.19 204.36 181.23 201.92 177.19 201.92C173.51 201.92 171.63 204.36 171.63 208.96V219H167.91V199H171.63V201.84C172.91 199.68 175.03 198.4 178.31 198.4C181.55 198.4 183.75 199.64 184.91 201.84C186.11 199.88 188.27 198.4 191.79 198.4C197.67 198.4 200.19 201.24 200.19 207.76V219H196.43V208C196.43 204.36 195.47 201.92 191.43 201.92C187.79 201.92 185.91 204.36 185.91 206.96V219ZM207.529 227H203.809V199H207.529V201.92C208.729 199.68 210.849 198.4 214.529 198.4C220.049 198.4 223.809 202.04 223.809 209C223.809 215.96 219.369 219.6 214.369 219.6C210.769 219.6 208.689 218.16 207.529 215.96V227ZM219.889 208.96C219.889 204.36 218.049 201.92 213.769 201.92C209.729 201.92 207.529 204.36 207.529 208.96C207.529 213.6 209.729 216.08 213.769 216.08C217.409 216.08 219.889 213.6 219.889 208.96ZM242.052 206.2C242.052 201.96 238.532 201.68 236.132 201.68C233.532 201.68 230.372 201.96 230.372 205.92H226.892C226.892 200.6 230.452 198.4 236.092 198.4C242.612 198.4 245.812 200.72 245.812 206.64V219H242.052V216.24C241.252 218.24 239.292 219.6 234.732 219.6C229.492 219.6 225.812 218.28 225.812 213.44C225.812 209.52 228.892 207.72 234.972 207.04L242.052 206.28V206.2ZM242.052 209.08L235.332 209.8C232.372 210.16 229.732 211.04 229.732 213.36C229.732 215.12 230.892 216.32 235.132 216.32C240.172 216.32 241.852 214 242.052 212.36V209.08ZM269.395 219H265.675V208C265.675 204.36 264.515 201.92 259.675 201.92C255.355 201.92 253.115 204.36 253.115 208.96V219H249.395V199H253.115V201.88C254.475 199.68 256.795 198.4 260.555 198.4C266.595 198.4 269.395 201.24 269.395 207.76V219ZM272.188 192.92C272.188 191.12 272.988 190.24 274.868 190.24C276.708 190.24 277.508 191.12 277.508 192.92C277.508 194.68 276.708 195.6 274.868 195.6C272.988 195.6 272.188 194.68 272.188 192.92ZM272.988 219V199H276.708V219H272.988ZM300.843 209.36V210.16H283.883C284.283 214.76 286.883 216.32 291.083 216.32C294.603 216.32 297.163 214.44 297.163 212.16L300.603 212.2C300.603 216.6 297.283 219.6 291.083 219.6C283.603 219.6 279.923 215.92 279.923 208.96C279.923 202.16 283.643 198.4 290.363 198.4C297.843 198.4 300.843 202.2 300.843 209.36ZM284.003 207.24H297.083C296.643 203.2 294.123 201.68 290.523 201.68C287.203 201.68 284.603 203.52 284.003 207.24ZM303.323 204.16C303.323 200.12 306.683 198.4 312.523 198.4C319.323 198.4 322.483 200.6 322.483 205.8H319.043C319.043 202.6 316.483 201.68 311.963 201.68C307.563 201.68 306.723 202.92 306.723 204.12C306.723 205.44 308.363 206.4 313.283 207.36C319.083 208.44 322.723 209.12 322.723 213.72C322.723 217.96 319.523 219.6 313.563 219.6C306.403 219.6 303.243 217.4 303.243 212.2H306.723C306.723 215.28 309.723 216.32 313.963 216.32C317.923 216.32 319.323 215.32 319.323 213.84C319.323 211.64 316.883 211.56 312.363 210.68C308.003 209.88 303.323 208.64 303.323 204.16ZM340.269 212.08V202.48H335.109V199H340.269L341.349 191H344.029V199H354.309V202.48H344.029V211.4C344.029 213.68 344.349 216.08 347.229 216.08C349.229 216.08 350.869 215 350.869 211.4H354.349C354.349 217.6 351.549 219.6 347.149 219.6C342.829 219.6 340.269 217.56 340.269 212.08ZM361.161 219H357.441V189H361.161V201.88C362.521 199.68 364.841 198.4 368.601 198.4C374.641 198.4 377.441 201.24 377.441 207.76V219H373.721V208C373.721 204.36 372.561 201.92 367.721 201.92C363.401 201.92 361.161 204.36 361.161 208.96V219ZM396.075 206.2C396.075 201.96 392.555 201.68 390.155 201.68C387.555 201.68 384.395 201.96 384.395 205.92H380.915C380.915 200.6 384.475 198.4 390.115 198.4C396.635 198.4 399.835 200.72 399.835 206.64V219H396.075V216.24C395.275 218.24 393.315 219.6 388.755 219.6C383.515 219.6 379.835 218.28 379.835 213.44C379.835 209.52 382.915 207.72 388.995 207.04L396.075 206.28V206.2ZM396.075 209.08L389.355 209.8C386.395 210.16 383.755 211.04 383.755 213.36C383.755 215.12 384.915 216.32 389.155 216.32C394.195 216.32 395.875 214 396.075 212.36V209.08ZM407.378 212.08V202.48H402.218V199H407.378L408.458 191H411.138V199H421.418V202.48H411.138V211.4C411.138 213.68 411.458 216.08 414.338 216.08C416.338 216.08 417.978 215 417.978 211.4H421.458C421.458 217.6 418.658 219.6 414.258 219.6C409.938 219.6 407.378 217.56 407.378 212.08ZM444.861 198.4C451.261 198.4 454.621 202.2 454.621 207H451.141C451.141 204.08 449.101 201.92 444.821 201.92C440.821 201.92 438.061 203.76 438.061 208.92C438.061 214.32 441.141 216.08 445.021 216.08C449.341 216.08 451.221 213.92 451.221 211H454.701C454.701 215.8 451.701 219.6 444.941 219.6C437.941 219.6 434.141 215.96 434.141 209C434.141 201.96 437.421 198.4 444.861 198.4ZM472.56 206.2C472.56 201.96 469.04 201.68 466.64 201.68C464.04 201.68 460.88 201.96 460.88 205.92H457.4C457.4 200.6 460.96 198.4 466.6 198.4C473.12 198.4 476.32 200.72 476.32 206.64V219H472.56V216.24C471.76 218.24 469.8 219.6 465.24 219.6C460 219.6 456.32 218.28 456.32 213.44C456.32 209.52 459.4 207.72 465.48 207.04L472.56 206.28V206.2ZM472.56 209.08L465.84 209.8C462.88 210.16 460.24 211.04 460.24 213.36C460.24 215.12 461.4 216.32 465.64 216.32C470.68 216.32 472.36 214 472.56 212.36V209.08ZM483.622 219H479.902V199H483.622V201.84C484.902 199.68 486.942 198.4 489.982 198.4C494.942 198.4 497.422 201.36 497.422 207.08H493.942C493.942 204 492.742 201.92 489.262 201.92C485.742 201.92 483.622 204.36 483.622 208.96V219ZM519.827 209.36V210.16H502.867C503.267 214.76 505.867 216.32 510.067 216.32C513.587 216.32 516.147 214.44 516.147 212.16L519.587 212.2C519.587 216.6 516.267 219.6 510.067 219.6C502.587 219.6 498.907 215.92 498.907 208.96C498.907 202.16 502.627 198.4 509.347 198.4C516.827 198.4 519.827 202.2 519.827 209.36ZM502.987 207.24H516.067C515.627 203.2 513.107 201.68 509.507 201.68C506.187 201.68 503.587 203.52 502.987 207.24ZM548.458 206.2C548.458 201.96 544.938 201.68 542.538 201.68C539.938 201.68 536.778 201.96 536.778 205.92H533.298C533.298 200.6 536.858 198.4 542.498 198.4C549.018 198.4 552.218 200.72 552.218 206.64V219H548.458V216.24C547.658 218.24 545.698 219.6 541.138 219.6C535.898 219.6 532.218 218.28 532.218 213.44C532.218 209.52 535.298 207.72 541.378 207.04L548.458 206.28V206.2ZM548.458 209.08L541.738 209.8C538.778 210.16 536.138 211.04 536.138 213.36C536.138 215.12 537.298 216.32 541.538 216.32C546.578 216.32 548.258 214 548.458 212.36V209.08ZM559.521 219H555.801V189H559.521V201.92C560.721 199.68 562.841 198.4 566.521 198.4C572.041 198.4 575.801 202.04 575.801 209C575.801 215.96 571.361 219.6 566.361 219.6C562.761 219.6 560.681 218.16 559.521 215.96V219ZM571.881 208.96C571.881 204.36 570.041 201.92 565.761 201.92C561.721 201.92 559.521 204.36 559.521 208.96C559.521 213.6 561.721 216.08 565.761 216.08C569.401 216.08 571.881 213.6 571.881 208.96ZM578.204 209C578.204 202.04 581.804 198.4 589.284 198.4C596.764 198.4 600.404 202.04 600.404 209C600.404 215.96 596.764 219.6 589.284 219.6C581.804 219.6 578.204 215.96 578.204 209ZM582.124 209C582.124 213.64 584.444 216.08 589.284 216.08C594.124 216.08 596.484 213.64 596.484 209C596.484 204.36 594.124 201.92 589.284 201.92C584.364 201.92 582.124 204.36 582.124 209ZM603.213 199H606.933V210C606.933 213.64 608.093 216.08 612.933 216.08C617.253 216.08 619.493 213.64 619.493 209.04V199H623.213V219H619.493V216.12C618.133 218.32 615.813 219.6 612.053 219.6C606.013 219.6 603.213 216.76 603.213 210.24V199ZM631.167 212.08V202.48H626.007V199H631.167L632.247 191H634.927V199H645.207V202.48H634.927V211.4C634.927 213.68 635.247 216.08 638.127 216.08C640.127 216.08 641.767 215 641.767 211.4H645.247C645.247 217.6 642.447 219.6 638.047 219.6C633.727 219.6 631.167 217.56 631.167 212.08ZM675.01 227V215.88C673.81 218.16 671.65 219.6 667.77 219.6C662.17 219.6 657.93 215.96 657.93 209C657.93 202.04 661.45 198.4 667.61 198.4C671.57 198.4 673.81 199.72 675.01 202V199H678.73V227H675.01ZM661.85 208.96C661.85 213.6 664.09 216.08 668.37 216.08C672.77 216.08 675.01 213.6 675.01 208.96C675.01 204.36 672.77 201.92 668.37 201.92C663.45 201.92 661.85 204.36 661.85 208.96ZM682.315 199H686.035V210C686.035 213.64 687.195 216.08 692.035 216.08C696.355 216.08 698.595 213.64 698.595 209.04V199H702.315V219H698.595V216.12C697.235 218.32 694.915 219.6 691.155 219.6C685.115 219.6 682.315 216.76 682.315 210.24V199ZM721.349 206.2C721.349 201.96 717.829 201.68 715.429 201.68C712.829 201.68 709.669 201.96 709.669 205.92H706.189C706.189 200.6 709.749 198.4 715.389 198.4C721.909 198.4 725.109 200.72 725.109 206.64V219H721.349V216.24C720.549 218.24 718.589 219.6 714.029 219.6C708.789 219.6 705.109 218.28 705.109 213.44C705.109 209.52 708.189 207.72 714.269 207.04L721.349 206.28V206.2ZM721.349 209.08L714.629 209.8C711.669 210.16 709.029 211.04 709.029 213.36C709.029 215.12 710.189 216.32 714.429 216.32C719.469 216.32 721.149 214 721.349 212.36V209.08ZM732.411 219H728.691V189H732.411V219ZM735.626 192.92C735.626 191.12 736.426 190.24 738.306 190.24C740.146 190.24 740.946 191.12 740.946 192.92C740.946 194.68 740.146 195.6 738.306 195.6C736.426 195.6 735.626 194.68 735.626 192.92ZM736.426 219V199H740.146V219H736.426ZM748.12 212.08V202.48H742.96V199H748.12L749.2 191H751.88V199H762.16V202.48H751.88V211.4C751.88 213.68 752.2 216.08 755.08 216.08C757.08 216.08 758.72 215 758.72 211.4H762.2C762.2 217.6 759.4 219.6 755 219.6C750.68 219.6 748.12 217.56 748.12 212.08ZM777.973 218.44C775.813 224.56 774.933 228.2 769.573 228.2C765.493 228.2 763.773 224.88 763.773 220.48H767.093C767.093 224.12 768.293 224.92 769.653 224.92C771.653 224.92 772.533 222.96 773.453 220.24L773.973 218.76L763.373 199H767.613L775.653 213.92L780.853 199H784.813L777.973 218.44ZM786.016 217.08C786.016 215.4 786.776 214.52 788.536 214.52C790.336 214.52 791.096 215.4 791.096 217.08C791.096 218.76 790.336 219.6 788.536 219.6C786.776 219.6 786.016 218.76 786.016 217.08Z" fill="black"/>
<path d="M0.452148 0H20.8842V20.5029H14.0731L0.452148 6.83477V0Z" fill="#FEBB12"/>
<path d="M39.483 0H59.9151V20.5029H53.1039L39.483 6.83477V0Z" fill="#FEBB12"/>
<path d="M118.306 0H138.738V20.5029H131.927L118.306 6.83477V0Z" fill="#FEBB12"/>
<path d="M277.452 0H297.884V20.5029H291.073L277.452 6.83477V0Z" fill="#FEBB12"/>
<path d="M79 0H99.432V20.5029H92.6209L79 6.83477V0Z" fill="#FEBB12"/>
<path d="M199.116 0H219.548V20.5029H212.737L199.116 6.83477V0Z" fill="#FEBB12"/>
<path d="M157.336 0H177.768V20.5029H170.957L157.336 6.83477V0Z" fill="#FEBB12"/>
<path d="M238.421 0H258.853V20.5029H252.042L238.421 6.83477V0Z" fill="#FEBB12"/>
<path d="M316.483 0H336.915V20.5029H330.104L316.483 6.83477V0Z" fill="#FEBB12"/>
<path d="M118.306 293H138.738V313.503H131.927L118.306 299.835V293Z" fill="#FEBB12"/>
<path d="M277.452 293H297.884V313.503H291.073L277.452 299.835V293Z" fill="#FEBB12"/>
<path d="M199.116 293H219.548V313.503H212.737L199.116 299.835V293Z" fill="#FEBB12"/>
<path d="M157.336 293H177.768V313.503H170.957L157.336 299.835V293Z" fill="#FEBB12"/>
<path d="M238.421 293H258.854V313.503H252.042L238.421 299.835V293Z" fill="#FEBB12"/>
<path d="M316.483 293H336.915V313.503H330.104L316.483 299.835V293Z" fill="#FEBB12"/>
<path d="M395.306 293H415.738V313.503H408.927L395.306 299.835V293Z" fill="#FEBB12"/>
<path d="M554.452 293H574.884V313.503H568.073L554.452 299.835V293Z" fill="#FEBB12"/>
<path d="M356 293H376.432V313.503H369.621L356 299.835V293Z" fill="#FEBB12"/>
<path d="M476.116 293H496.548V313.503H489.737L476.116 299.835V293Z" fill="#FEBB12"/>
<path d="M434.336 293H454.768V313.503H447.957L434.336 299.835V293Z" fill="#FEBB12"/>
<path d="M515.421 293H535.853V313.503H529.042L515.421 299.835V293Z" fill="#FEBB12"/>
<path d="M593.483 293H613.915V313.503H607.104L593.483 299.835V293Z" fill="#FEBB12"/>
<path d="M672.306 293H692.738V313.503H685.927L672.306 299.835V293Z" fill="#FEBB12"/>
<path d="M831.452 293H851.884V313.503H845.073L831.452 299.835V293Z" fill="#FEBB12"/>
<path d="M633 293H653.432V313.503H646.621L633 299.835V293Z" fill="#FEBB12"/>
<path d="M753.116 293H773.548V313.503H766.737L753.116 299.835V293Z" fill="#FEBB12"/>
<path d="M711.336 293H731.768V313.503H724.957L711.336 299.835V293Z" fill="#FEBB12"/>
<path d="M792.421 293H812.853V313.503H806.042L792.421 299.835V293Z" fill="#FEBB12"/>
<path d="M870.483 293H890.915V313.503H884.104L870.483 299.835V293Z" fill="#FEBB12"/>
<path d="M395.306 0H415.738V20.5029H408.927L395.306 6.83477V0Z" fill="#FEBB12"/>
<path d="M554.452 0H574.884V20.5029H568.073L554.452 6.83477V0Z" fill="#FEBB12"/>
<path d="M356 0H376.432V20.5029H369.621L356 6.83477V0Z" fill="#FEBB12"/>
<path d="M476.116 0H496.548V20.5029H489.737L476.116 6.83477V0Z" fill="#FEBB12"/>
<path d="M434.336 0H454.768V20.5029H447.957L434.336 6.83477V0Z" fill="#FEBB12"/>
<path d="M515.421 0H535.853V20.5029H529.042L515.421 6.83477V0Z" fill="#FEBB12"/>
<path d="M593.483 0H613.915V20.5029H607.104L593.483 6.83477V0Z" fill="#FEBB12"/>
<path d="M672.306 0H692.738V20.5029H685.927L672.306 6.83477V0Z" fill="#FEBB12"/>
<path d="M831.452 0H851.884V20.5029H845.073L831.452 6.83477V0Z" fill="#FEBB12"/>
<path d="M633 0H653.432V20.5029H646.621L633 6.83477V0Z" fill="#FEBB12"/>
<path d="M753.116 0H773.548V20.5029H766.737L753.116 6.83477V0Z" fill="#FEBB12"/>
<path d="M711.336 0H731.768V20.5029H724.957L711.336 6.83477V0Z" fill="#FEBB12"/>
<path d="M792.421 0H812.853V20.5029H806.042L792.421 6.83477V0Z" fill="#FEBB12"/>
<path d="M870.483 0H890.915V20.5029H884.104L870.483 6.83477V0Z" fill="#FEBB12"/>
<path d="M871 46H891.432V66.5029H884.621L871 52.8348V46Z" fill="#FEBB12"/>
<path d="M871 87H891.432V107.503H884.621L871 93.8348V87Z" fill="#FEBB12"/>
<path d="M871 128H891.432V148.503H884.621L871 134.835V128Z" fill="#FEBB12"/>
<path d="M871 169H891.432V189.503H884.621L871 175.835V169Z" fill="#FEBB12"/>
<path d="M871 210H891.432V230.503H884.621L871 216.835V210Z" fill="#FEBB12"/>
<path d="M871 251H891.432V271.503H884.621L871 257.835V251Z" fill="#FEBB12"/>
<path d="M0 46H20.4321V66.5029H13.6209L0 52.8348V46Z" fill="#FEBB12"/>
<path d="M0 87H20.4321V107.503H13.6209L0 93.8348V87Z" fill="#FEBB12"/>
<path d="M0 128H20.4321V148.503H13.6209L0 134.835V128Z" fill="#FEBB12"/>
<path d="M0 169H20.4321V189.503H13.6209L0 175.835V169Z" fill="#FEBB12"/>
<path d="M40 210H60.4321V230.503H53.6209L40 216.835V210Z" fill="#FEBB12"/>
<path d="M79 251H99.4321V271.503H92.6209L79 257.835V251Z" fill="#FEBB12"/>
</svg>
